<svg width="38" height="38" viewBox="0 0 38 38" fill="none" xmlns="http://www.w3.org/2000/svg">
<path d="M5.6044 0.0960197C5.44112 0.155396 5.20362 0.251877 5.07745 0.318676C4.788 0.467113 2.45753 2.69368 1.75987 3.47297C1.16612 4.14836 0.60948 5.18 0.342293 6.09289C-1.02333 10.8132 1.78956 17.7972 7.96456 25.0113C9.02589 26.2433 12.247 29.4124 13.5458 30.496C20.5075 36.2925 27.061 38.8902 31.7368 37.7027C32.056 37.621 32.6942 37.3687 33.1396 37.1534C34.1044 36.6784 34.5052 36.337 36.331 34.437C37.8153 32.8933 37.9638 32.6484 37.9638 31.728C37.9638 30.7038 38.0232 30.778 34.1638 26.9335C30.9724 23.757 30.7423 23.5343 30.3564 23.4081C29.7552 23.2077 29.0724 23.2374 28.538 23.4823C28.1966 23.6382 27.8478 23.9277 26.9126 24.8554C25.3689 26.3769 24.8567 26.6589 23.595 26.6589C22.8306 26.6589 22.3185 26.4956 21.413 25.9909C18.3997 24.3062 15.7724 21.9905 13.6942 19.1925C12.6478 17.7749 11.6755 16.1198 11.4603 15.3999C11.2005 14.4796 11.3564 13.3218 11.8536 12.5202C11.9575 12.3495 12.5513 11.689 13.1821 11.0581C14.0802 10.1452 14.3622 9.81125 14.5181 9.46984C14.763 8.92805 14.7927 8.24524 14.5923 7.64406C14.4661 7.25813 14.2435 7.02805 11.0669 3.83664C7.32628 0.0811768 7.31885 0.0737534 6.39854 0.0292206C6.10909 0.0143776 5.7751 0.0440674 5.6044 0.0960197Z" fill="white"/>
</svg>
